# xmcd
#
# Track frame offsets: 
#        150
#        20453
#        41812
#        63629
#        82293
#        104551
#        120819
#        138214
#        159258
#        177295
#        197802
#        215088
#
# Disc length: 3138 seconds
#
# Revision: 0
# Processed by: cddbd v1.5.1PL2 Copyright (c) Steve Scherf et al.
# Submitted via: ExactAudioCopy v0.95a5
#
DISCID=aa0c400c
DTITLE=Cristhian Cristhian - Rompe Corazones
DYEAR=2005
DGENRE=Latin
TTITLE0=Espero Tu Regreso
TTITLE1=No He Podido Ser Feliz
TTITLE2=La Cama
TTITLE3=Vuelve
TTITLE4=La Ultima Noche
TTITLE5=No Soy El Mismo Sin Ti
TTITLE6=Te Amo Tanto Nena
TTITLE7=Tú Llorarás
TTITLE8=Ya No Te Quiero
TTITLE9=No Le Digan
TTITLE10=Rompe Corazones
TTITLE11=Se Volvió Loco
EXTD=
EXTT0=
EXTT1=
EXTT2=
EXTT3=
EXTT4=
EXTT5=
EXTT6=
EXTT7=
EXTT8=
EXTT9=
EXTT10=
EXTT11=
PLAYORDER=
